<?xml version="1.0" encoding="utf-8"?>
<!-- Generator: Adobe Illustrator 20.1.0, SVG Export Plug-In . SVG Version: 6.00 Build 0)  -->
<svg version="1.1" id="Layer_1" xmlns="http://www.w3.org/2000/svg" xmlns:xlink="http://www.w3.org/1999/xlink" x="0px" y="0px"
	 viewBox="0 0 31.729 26.956" style="enable-background:new 0 0 31.729 26.956;" xml:space="preserve">
<style type="text/css">
	.st0{fill:#FFFFFF;}
	.st1{fill:#4A494A;}
	.st2{fill:#3EAE49;}
	.st3{fill:#CF2028;}
</style>
<g>
	<g>
		<g>
			<path class="st0" d="M6.117,22.629c0.538-0.896,0.856-1.912,1.157-2.99l-0.047-0.028c-0.55-0.327-1.101-0.654-1.631-1.01
				c-0.968-0.65-1.823-1.48-2.54-2.467c-1.102-1.517-1.623-3.161-1.549-4.889c0.06-1.391,0.512-2.715,1.344-3.935
				C3.672,6.107,4.769,5.06,6.112,4.2c1.896-1.216,4.092-2.036,6.524-2.439c1.05-0.173,2.132-0.261,3.219-0.261
				c0.284,0,0.569,0.006,0.854,0.018c2.716,0.111,5.258,0.752,7.557,1.904c1.271,0.637,2.384,1.422,3.309,2.333
				c1.016,1,1.724,2.043,2.164,3.187c0.465,1.21,0.6,2.476,0.401,3.76c-0.22,1.416-0.829,2.703-1.862,3.936
				c-0.876,1.044-1.976,1.952-3.27,2.697c-1.41,0.812-2.985,1.424-4.682,1.821c-1.183,0.277-2.421,0.438-3.784,0.489
				c-0.205,0.008-0.409,0.011-0.612,0.011c-0.965,0-1.889-0.082-2.697-0.173c-1.225,1.098-2.471,1.964-3.798,2.643
				c-0.31,0.159-0.627,0.306-0.946,0.452l-0.637,0.297l-3.141,0.168L6.117,22.629z"/>
			<path class="st1" d="M15.853,3c0.264,0,0.529,0.006,0.794,0.016c2.435,0.1,4.76,0.651,6.946,1.746
				c1.078,0.541,2.068,1.213,2.929,2.061c0.778,0.766,1.421,1.628,1.817,2.657c0.372,0.969,0.477,1.965,0.318,2.991
				c-0.189,1.221-0.744,2.266-1.529,3.202c-0.809,0.965-1.782,1.735-2.869,2.361c-1.339,0.771-2.772,1.309-4.275,1.661
				c-1.15,0.269-2.318,0.406-3.499,0.45c-0.185,0.007-0.37,0.01-0.555,0.01c-0.969,0-1.933-0.091-2.894-0.206
				c-0.04-0.005-0.078-0.007-0.115-0.007c-0.151,0-0.276,0.045-0.405,0.165c-1.138,1.057-2.378,1.974-3.764,2.684
				c-0.417,0.214-0.847,0.402-1.271,0.601c-0.012,0.006-0.028,0.003-0.078,0.008c0.835-1.392,1.191-2.933,1.622-4.465
				c-0.116-0.068-0.234-0.136-0.351-0.207c-0.749-0.455-1.515-0.886-2.243-1.374c-0.844-0.567-1.563-1.277-2.163-2.103
				c-0.854-1.175-1.326-2.475-1.263-3.942c0.05-1.156,0.436-2.203,1.085-3.154c0.75-1.1,1.716-1.979,2.831-2.693
				c1.825-1.17,3.828-1.869,5.96-2.222C13.867,3.078,14.858,3,15.853,3 M15.853,0c-1.168,0-2.333,0.095-3.462,0.281
				c-2.634,0.436-5.02,1.329-7.089,2.656C3.788,3.907,2.546,5.095,1.612,6.466C0.62,7.921,0.08,9.507,0.008,11.182
				c-0.089,2.074,0.528,4.037,1.834,5.834c0.821,1.13,1.802,2.082,2.918,2.83c0.249,0.167,0.497,0.325,0.743,0.478
				c-0.187,0.562-0.397,1.075-0.672,1.533L1.77,26.956l5.885-0.566c0.389-0.026,0.759-0.121,1.102-0.283l0.362-0.167
				c0.336-0.155,0.672-0.31,1-0.478c1.259-0.644,2.447-1.44,3.607-2.419c0.676,0.064,1.433,0.114,2.205,0.114
				c0.223,0,0.445-0.004,0.668-0.012c1.459-0.055,2.79-0.228,4.069-0.527c1.839-0.431,3.551-1.097,5.088-1.982
				c1.446-0.832,2.681-1.853,3.671-3.033c1.197-1.428,1.936-2.999,2.195-4.669c0.24-1.547,0.078-3.07-0.483-4.527
				c-0.518-1.348-1.34-2.564-2.512-3.718c-1.038-1.022-2.279-1.899-3.69-2.606c-2.489-1.248-5.237-1.941-8.167-2.062
				C16.465,0.006,16.159,0,15.853,0L15.853,0z"/>
		</g>
		<g>
			<path class="st1" d="M7.403,23.401c0.05-0.005,0.066-0.002,0.078-0.008c0.424-0.199,0.854-0.388,1.271-0.601
				c1.386-0.709,2.626-1.627,3.764-2.684c0.161-0.15,0.315-0.182,0.521-0.157c1.145,0.138,2.292,0.24,3.449,0.196
				c1.181-0.045,2.349-0.181,3.499-0.45c1.503-0.352,2.935-0.89,4.275-1.661c1.087-0.626,2.059-1.395,2.869-2.361
				c0.785-0.936,1.34-1.981,1.529-3.202c0.159-1.025,0.054-2.022-0.318-2.991c-0.396-1.03-1.039-1.891-1.817-2.657
				c-0.861-0.848-1.851-1.521-2.929-2.061c-2.186-1.095-4.511-1.646-6.946-1.746c-1.262-0.052-2.518,0.018-3.766,0.225
				c-2.132,0.353-4.135,1.052-5.96,2.222C5.807,6.177,4.84,7.056,4.09,8.156c-0.649,0.952-1.035,1.998-1.085,3.154
				c-0.063,1.467,0.409,2.767,1.263,3.942c0.6,0.825,1.318,1.536,2.163,2.103c0.727,0.488,1.494,0.918,2.243,1.374
				c0.116,0.071,0.234,0.139,0.35,0.207C8.594,20.467,8.238,22.009,7.403,23.401z"/>
			<g>
				<path class="st0" d="M6.974,23.143c0.692-1.154,1.039-2.416,1.405-3.75l0.061-0.221l-0.703-0.42
					c-0.535-0.317-1.069-0.635-1.585-0.98c-0.871-0.584-1.64-1.333-2.289-2.225c-0.966-1.329-1.423-2.761-1.358-4.257
					c0.052-1.202,0.446-2.351,1.171-3.415c0.745-1.092,1.745-2.045,2.974-2.833c1.807-1.158,3.818-1.908,6.148-2.294
					C13.795,2.583,14.823,2.5,15.855,2.5c0.271,0,0.542,0.005,0.813,0.017c2.573,0.105,4.979,0.711,7.15,1.799
					c1.177,0.59,2.206,1.314,3.056,2.152c0.913,0.899,1.545,1.826,1.933,2.833c0.401,1.045,0.518,2.138,0.346,3.248
					c-0.191,1.23-0.728,2.357-1.64,3.446c-0.812,0.968-1.794,1.777-3.002,2.473c-1.325,0.763-2.809,1.339-4.411,1.714
					c-1.12,0.263-2.296,0.414-3.594,0.463c-0.192,0.007-0.383,0.011-0.574,0.011c-1.065,0-2.091-0.106-2.954-0.209l-0.461-0.339
					l0.34,0.366c-1.256,1.167-2.523,2.07-3.876,2.763c-0.298,0.153-0.603,0.293-0.908,0.434l-0.467,0.217l-1.068,0.059L6.974,23.143
					z"/>
				<path class="st1" d="M15.853,3c0.264,0,0.529,0.006,0.794,0.016c2.435,0.1,4.76,0.651,6.946,1.746
					c1.078,0.541,2.068,1.213,2.929,2.061c0.778,0.766,1.421,1.628,1.817,2.657c0.372,0.969,0.477,1.965,0.318,2.991
					c-0.189,1.221-0.744,2.266-1.529,3.202c-0.809,0.965-1.782,1.735-2.869,2.361c-1.339,0.771-2.772,1.309-4.275,1.661
					c-1.15,0.269-2.318,0.406-3.499,0.45c-0.185,0.007-0.37,0.01-0.555,0.01c-0.969,0-1.933-0.091-2.895-0.206
					c-0.04-0.005-0.078-0.007-0.115-0.007c-0.151,0-0.276,0.045-0.405,0.165c-1.138,1.057-2.378,1.974-3.764,2.684
					c-0.417,0.214-0.847,0.402-1.271,0.601c-0.012,0.006-0.028,0.003-0.078,0.008c0.835-1.392,1.191-2.933,1.622-4.465
					c-0.116-0.068-0.234-0.136-0.35-0.207c-0.749-0.455-1.516-0.886-2.243-1.374c-0.844-0.567-1.563-1.277-2.163-2.103
					c-0.854-1.175-1.326-2.475-1.263-3.942c0.05-1.156,0.436-2.203,1.085-3.154c0.75-1.1,1.716-1.979,2.831-2.693
					c1.825-1.17,3.828-1.869,5.96-2.222C13.867,3.078,14.858,3,15.853,3 M15.853,2c-1.059,0-2.114,0.086-3.135,0.255
					c-2.365,0.391-4.497,1.187-6.336,2.366C5.095,5.445,4.046,6.445,3.264,7.592c-0.779,1.142-1.202,2.379-1.258,3.675
					c-0.069,1.612,0.42,3.15,1.453,4.573c0.682,0.939,1.495,1.728,2.414,2.345c0.53,0.356,1.078,0.681,1.607,0.995
					c0.126,0.075,0.251,0.149,0.377,0.224c-0.343,1.248-0.679,2.427-1.312,3.482l-1.02,1.7l1.973-0.19
					c0.063-0.003,0.223-0.012,0.407-0.098l0.377-0.174c0.311-0.143,0.621-0.286,0.925-0.442c1.348-0.69,2.612-1.581,3.859-2.721
					c0.843,0.1,1.833,0.196,2.864,0.196c0.197,0,0.395-0.004,0.593-0.011c1.33-0.05,2.536-0.206,3.689-0.476
					c1.649-0.386,3.178-0.981,4.546-1.768c1.242-0.715,2.298-1.585,3.136-2.585c0.973-1.161,1.546-2.368,1.751-3.691
					c0.186-1.197,0.06-2.376-0.373-3.503c-0.414-1.076-1.084-2.061-2.048-3.011c-0.889-0.875-1.959-1.63-3.183-2.243
					c-2.234-1.12-4.708-1.743-7.353-1.851C16.41,2.006,16.131,2,15.853,2L15.853,2z"/>
			</g>
			<g>
				<path class="st0" d="M6.974,23.143c0.692-1.154,1.039-2.416,1.405-3.75l0.061-0.221l-0.703-0.42
					c-0.535-0.317-1.069-0.635-1.585-0.98c-0.871-0.584-1.64-1.333-2.289-2.225c-0.966-1.329-1.423-2.761-1.358-4.257
					c0.052-1.202,0.446-2.351,1.171-3.415c0.745-1.092,1.745-2.045,2.974-2.833c1.807-1.158,3.818-1.908,6.148-2.294
					C13.795,2.583,14.823,2.5,15.855,2.5c0.271,0,0.542,0.005,0.813,0.017c2.573,0.105,4.979,0.711,7.15,1.799
					c1.177,0.59,2.206,1.314,3.056,2.152c0.913,0.899,1.545,1.826,1.933,2.833c0.401,1.045,0.518,2.138,0.346,3.248
					c-0.191,1.23-0.728,2.357-1.64,3.446c-0.812,0.968-1.794,1.777-3.002,2.473c-1.325,0.763-2.809,1.339-4.411,1.714
					c-1.12,0.263-2.296,0.414-3.594,0.463c-0.192,0.007-0.383,0.011-0.574,0.011c-1.065,0-2.091-0.106-2.954-0.209l-0.461-0.339
					l0.34,0.366c-1.256,1.167-2.523,2.07-3.876,2.763c-0.298,0.153-0.603,0.293-0.908,0.434l-0.467,0.217l-1.068,0.059L6.974,23.143
					z"/>
				<path class="st0" d="M15.853,3c0.264,0,0.529,0.006,0.794,0.016c2.435,0.1,4.76,0.651,6.946,1.746
					c1.078,0.541,2.068,1.213,2.929,2.061c0.778,0.766,1.421,1.628,1.817,2.657c0.372,0.969,0.477,1.965,0.318,2.991
					c-0.189,1.221-0.744,2.266-1.529,3.202c-0.809,0.965-1.782,1.735-2.869,2.361c-1.339,0.771-2.772,1.309-4.275,1.661
					c-1.15,0.269-2.318,0.406-3.499,0.45c-0.185,0.007-0.37,0.01-0.555,0.01c-0.969,0-1.933-0.091-2.895-0.206
					c-0.04-0.005-0.078-0.007-0.115-0.007c-0.151,0-0.276,0.045-0.405,0.165c-1.138,1.057-2.378,1.974-3.764,2.684
					c-0.417,0.214-0.847,0.402-1.271,0.601c-0.012,0.006-0.028,0.003-0.078,0.008c0.835-1.392,1.191-2.933,1.622-4.465
					c-0.116-0.068-0.234-0.136-0.35-0.207c-0.749-0.455-1.516-0.886-2.243-1.374c-0.844-0.567-1.563-1.277-2.163-2.103
					c-0.854-1.175-1.326-2.475-1.263-3.942c0.05-1.156,0.436-2.203,1.085-3.154c0.75-1.1,1.716-1.979,2.831-2.693
					c1.825-1.17,3.828-1.869,5.96-2.222C13.867,3.078,14.858,3,15.853,3 M15.853,2c-1.059,0-2.114,0.086-3.135,0.255
					c-2.365,0.391-4.497,1.187-6.336,2.366C5.095,5.445,4.046,6.445,3.264,7.592c-0.779,1.142-1.202,2.379-1.258,3.675
					c-0.069,1.612,0.42,3.15,1.453,4.573c0.682,0.939,1.495,1.728,2.414,2.345c0.53,0.356,1.078,0.681,1.607,0.995
					c0.126,0.075,0.251,0.149,0.377,0.224c-0.343,1.248-0.679,2.427-1.312,3.482l-1.02,1.7l1.973-0.19
					c0.063-0.003,0.223-0.012,0.407-0.098l0.377-0.174c0.311-0.143,0.621-0.286,0.925-0.442c1.348-0.69,2.612-1.581,3.859-2.721
					c0.843,0.1,1.833,0.196,2.864,0.196c0.197,0,0.395-0.004,0.593-0.011c1.33-0.05,2.536-0.206,3.689-0.476
					c1.649-0.386,3.178-0.981,4.546-1.768c1.242-0.715,2.298-1.585,3.136-2.585c0.973-1.161,1.546-2.368,1.751-3.691
					c0.186-1.197,0.06-2.376-0.373-3.503c-0.414-1.076-1.084-2.061-2.048-3.011c-0.889-0.875-1.959-1.63-3.183-2.243
					c-2.234-1.12-4.708-1.743-7.353-1.851C16.41,2.006,16.131,2,15.853,2L15.853,2z"/>
			</g>
		</g>
		<g>
			<path class="st2" d="M9.413,20.325c0.038-0.004,0.05-0.002,0.059-0.006c0.324-0.152,0.651-0.296,0.969-0.458
				c1.057-0.541,2.002-1.24,2.87-2.046c0.123-0.114,0.24-0.139,0.397-0.12c0.873,0.105,1.748,0.183,2.63,0.149
				c0.9-0.034,1.791-0.138,2.668-0.343c1.146-0.268,2.238-0.679,3.26-1.266c0.829-0.477,1.57-1.064,2.187-1.8
				c0.598-0.714,1.022-1.511,1.166-2.441c0.121-0.782,0.041-1.542-0.243-2.28c-0.302-0.785-0.792-1.442-1.385-2.026
				c-0.657-0.647-1.411-1.16-2.233-1.572c-1.666-0.835-3.439-1.255-5.296-1.331c-0.962-0.04-1.92,0.014-2.872,0.171
				c-1.625,0.269-3.153,0.802-4.544,1.694c-0.85,0.545-1.587,1.215-2.158,2.053c-0.495,0.726-0.789,1.523-0.827,2.405
				c-0.048,1.118,0.312,2.109,0.963,3.006c0.457,0.629,1.005,1.171,1.649,1.603c0.555,0.372,1.139,0.7,1.71,1.048
				c0.089,0.054,0.179,0.106,0.267,0.158C10.321,18.088,10.05,19.264,9.413,20.325z"/>
			<path class="st3" d="M9.413,20.325c0.038-0.004,0.05-0.002,0.059-0.006c0.324-0.152,0.651-0.296,0.969-0.458
				c1.057-0.541,2.002-1.24,2.87-2.046c0.123-0.114,0.24-0.139,0.397-0.12c0.873,0.105,1.748,0.183,2.63,0.149
				c0.9-0.034,1.791-0.138,2.668-0.343c1.146-0.268,2.238-0.679,3.26-1.266c0.829-0.477,1.57-1.064,2.187-1.8
				c0.598-0.714,1.022-1.511,1.166-2.441c0.121-0.782,0.041-1.542-0.243-2.28c-0.302-0.785-0.792-1.442-1.385-2.026
				c-0.657-0.647-1.411-1.16-2.233-1.572c-1.666-0.835-3.439-1.255-5.296-1.331c-0.962-0.04-1.92,0.014-2.872,0.171
				c-1.625,0.269-3.153,0.802-4.544,1.694c-0.85,0.545-1.587,1.215-2.158,2.053c-0.495,0.726-0.789,1.523-0.827,2.405
				c-0.048,1.118,0.312,2.109,0.963,3.006c0.457,0.629,1.005,1.171,1.649,1.603c0.555,0.372,1.139,0.7,1.71,1.048
				c0.089,0.054,0.179,0.106,0.267,0.158C10.321,18.088,10.05,19.264,9.413,20.325z"/>
		</g>
	</g>
</g>
</svg>
