<?xml version="1.0" encoding="utf-8"?>
<!-- Generator: Adobe Illustrator 20.1.0, SVG Export Plug-In . SVG Version: 6.00 Build 0)  -->
<svg version="1.1" id="Layer_1" xmlns="http://www.w3.org/2000/svg" xmlns:xlink="http://www.w3.org/1999/xlink" x="0px" y="0px"
	 viewBox="0 0 31.729 26.953" style="enable-background:new 0 0 31.729 26.953;" xml:space="preserve">
<style type="text/css">
	.st0{fill:#FFFFFF;}
	.st1{fill:#4A494A;}
	.st2{fill:#3EAE49;}
	.st3{fill:#CF2028;}
</style>
<g>
	<g>
		<g>
			<g>
				<path class="st0" d="M6.117,22.628c0.538-0.896,0.856-1.911,1.158-2.989l-0.046-0.026c-0.551-0.327-1.101-0.655-1.632-1.011
					c-0.971-0.652-1.825-1.482-2.541-2.468c-1.102-1.516-1.623-3.16-1.549-4.888c0.06-1.391,0.512-2.715,1.344-3.936
					c0.82-1.203,1.917-2.25,3.261-3.11c1.897-1.216,4.092-2.037,6.524-2.439C13.683,1.588,14.765,1.5,15.853,1.5
					c0.285,0,0.571,0.006,0.856,0.018c2.716,0.111,5.258,0.752,7.556,1.904c1.27,0.636,2.383,1.421,3.31,2.333
					C28.592,6.757,29.3,7.8,29.739,8.944c0.465,1.209,0.6,2.474,0.4,3.758c-0.22,1.417-0.83,2.705-1.863,3.936
					c-0.875,1.045-1.975,1.952-3.269,2.697c-1.41,0.811-2.984,1.424-4.681,1.821c-1.188,0.277-2.425,0.438-3.785,0.489
					c-0.204,0.008-0.407,0.012-0.61,0.012c-0.964,0-1.889-0.082-2.699-0.174c-1.224,1.097-2.47,1.964-3.798,2.643
					c-0.31,0.159-0.627,0.306-0.946,0.452l-0.641,0.299l-3.126,0.149L6.117,22.628z"/>
				<path class="st1" d="M15.854,3c0.264,0,0.529,0.005,0.794,0.016c2.435,0.1,4.76,0.651,6.946,1.746
					c1.079,0.541,2.068,1.213,2.929,2.061c0.778,0.766,1.421,1.628,1.817,2.657c0.372,0.969,0.477,1.965,0.318,2.991
					c-0.189,1.221-0.744,2.266-1.529,3.202c-0.809,0.965-1.782,1.735-2.869,2.361c-1.339,0.771-2.772,1.309-4.275,1.661
					c-1.15,0.269-2.318,0.406-3.499,0.45c-0.185,0.007-0.37,0.01-0.555,0.01c-0.969,0-1.932-0.091-2.894-0.206
					c-0.04-0.005-0.079-0.008-0.115-0.008c-0.151,0-0.276,0.045-0.405,0.165c-1.138,1.057-2.378,1.974-3.764,2.684
					c-0.417,0.214-0.847,0.402-1.271,0.601c-0.012,0.006-0.028,0.003-0.078,0.008c0.835-1.391,1.191-2.933,1.622-4.465
					c-0.116-0.068-0.234-0.136-0.35-0.207c-0.749-0.455-1.515-0.886-2.243-1.374c-0.844-0.567-1.563-1.277-2.163-2.103
					c-0.854-1.175-1.326-2.475-1.263-3.942c0.05-1.156,0.436-2.203,1.085-3.154c0.75-1.1,1.716-1.979,2.831-2.693
					c1.825-1.17,3.828-1.869,5.96-2.222C13.867,3.078,14.858,3,15.854,3 M15.854,0c-1.169,0-2.333,0.095-3.462,0.281
					c-2.634,0.436-5.02,1.329-7.089,2.656C3.788,3.907,2.546,5.095,1.612,6.466C0.62,7.921,0.08,9.507,0.008,11.181
					c-0.089,2.074,0.528,4.037,1.834,5.834c0.821,1.13,1.802,2.082,2.918,2.83c0.249,0.167,0.497,0.326,0.743,0.478
					c-0.187,0.563-0.397,1.075-0.672,1.533l-3.059,5.097l5.882-0.563c0.39-0.027,0.761-0.122,1.105-0.284l0.359-0.166
					c0.336-0.155,0.672-0.31,1.001-0.479c1.259-0.644,2.446-1.44,3.607-2.419c0.683,0.065,1.428,0.113,2.205,0.113
					c0.223,0,0.445-0.004,0.669-0.012c1.459-0.055,2.79-0.228,4.069-0.527c1.839-0.43,3.551-1.097,5.088-1.982
					c1.446-0.833,2.681-1.853,3.671-3.033c1.197-1.428,1.936-2.999,2.195-4.669c0.24-1.547,0.078-3.07-0.483-4.527
					c-0.518-1.348-1.34-2.564-2.512-3.718c-1.038-1.022-2.279-1.899-3.69-2.606c-2.489-1.248-5.237-1.941-8.167-2.062
					C16.465,0.006,16.159,0,15.854,0L15.854,0z"/>
			</g>
			<g>
				<path class="st1" d="M7.403,23.401c0.05-0.005,0.066-0.002,0.078-0.008c0.424-0.199,0.854-0.388,1.271-0.601
					c1.386-0.709,2.626-1.627,3.764-2.684c0.161-0.15,0.315-0.182,0.521-0.157c1.145,0.138,2.292,0.24,3.449,0.196
					c1.181-0.045,2.349-0.181,3.499-0.45c1.503-0.352,2.935-0.89,4.275-1.661c1.087-0.626,2.059-1.395,2.869-2.361
					c0.785-0.936,1.34-1.981,1.529-3.202c0.159-1.025,0.054-2.022-0.318-2.991c-0.396-1.03-1.039-1.891-1.817-2.657
					c-0.861-0.848-1.851-1.521-2.929-2.061c-2.186-1.095-4.511-1.646-6.946-1.746c-1.262-0.052-2.518,0.018-3.766,0.225
					c-2.132,0.353-4.135,1.052-5.96,2.222C5.807,6.177,4.84,7.056,4.09,8.156c-0.649,0.952-1.035,1.998-1.085,3.154
					c-0.063,1.467,0.409,2.767,1.263,3.942c0.6,0.825,1.318,1.536,2.163,2.103c0.727,0.488,1.494,0.918,2.243,1.374
					c0.116,0.071,0.234,0.139,0.35,0.207C8.594,20.467,8.238,22.009,7.403,23.401z"/>
				<g>
					<path class="st0" d="M6.974,23.142c0.692-1.152,1.038-2.411,1.404-3.744l0.063-0.227l-0.702-0.42
						c-0.535-0.317-1.07-0.636-1.586-0.981c-0.872-0.586-1.641-1.334-2.288-2.225c-0.966-1.329-1.423-2.761-1.359-4.257
						c0.052-1.202,0.446-2.351,1.171-3.415C4.421,6.783,5.422,5.83,6.652,5.042c1.807-1.159,3.818-1.909,6.147-2.294
						C13.793,2.583,14.82,2.5,15.853,2.5c0.271,0,0.543,0.006,0.815,0.017c2.573,0.106,4.979,0.711,7.149,1.799
						c1.176,0.589,2.204,1.313,3.056,2.152c0.914,0.9,1.545,1.827,1.933,2.834c0.401,1.044,0.518,2.137,0.346,3.247
						c-0.191,1.231-0.728,2.359-1.641,3.446c-0.811,0.968-1.793,1.777-3.002,2.474c-1.325,0.762-2.809,1.339-4.41,1.714
						c-1.124,0.263-2.299,0.414-3.594,0.464c-0.191,0.007-0.382,0.011-0.572,0.011c-1.064,0-2.091-0.106-2.956-0.211l-0.461-0.339
						l0.34,0.366c-1.254,1.166-2.522,2.069-3.876,2.763c-0.298,0.152-0.603,0.293-0.908,0.434l-0.469,0.218L6.54,23.94L6.974,23.142
						z"/>
					<path class="st1" d="M15.854,3c0.264,0,0.529,0.005,0.794,0.016c2.435,0.1,4.76,0.651,6.946,1.746
						c1.079,0.541,2.068,1.213,2.929,2.061c0.778,0.766,1.421,1.628,1.817,2.657c0.372,0.969,0.477,1.965,0.318,2.991
						c-0.189,1.221-0.744,2.266-1.529,3.202c-0.809,0.965-1.782,1.735-2.869,2.361c-1.339,0.771-2.772,1.309-4.275,1.661
						c-1.15,0.269-2.318,0.406-3.499,0.45c-0.185,0.007-0.37,0.01-0.555,0.01c-0.969,0-1.932-0.091-2.894-0.206
						c-0.04-0.005-0.079-0.008-0.115-0.008c-0.151,0-0.276,0.045-0.405,0.165c-1.138,1.057-2.378,1.974-3.764,2.684
						c-0.417,0.214-0.847,0.402-1.271,0.601c-0.012,0.006-0.028,0.003-0.078,0.008c0.835-1.391,1.191-2.933,1.622-4.465
						c-0.116-0.068-0.234-0.136-0.35-0.207c-0.749-0.455-1.515-0.886-2.243-1.374c-0.844-0.567-1.563-1.277-2.163-2.103
						c-0.854-1.175-1.326-2.475-1.263-3.942c0.05-1.156,0.436-2.203,1.085-3.154c0.75-1.1,1.716-1.979,2.831-2.693
						c1.825-1.17,3.828-1.869,5.96-2.222C13.867,3.078,14.858,3,15.854,3 M15.854,2c-1.06,0-2.115,0.086-3.136,0.255
						c-2.365,0.391-4.497,1.187-6.336,2.366C5.095,5.445,4.046,6.445,3.264,7.592c-0.779,1.142-1.202,2.379-1.258,3.675
						c-0.069,1.612,0.42,3.15,1.453,4.573c0.682,0.939,1.495,1.728,2.414,2.345c0.531,0.356,1.078,0.681,1.607,0.995
						c0.126,0.075,0.251,0.149,0.376,0.224c-0.343,1.248-0.679,2.427-1.312,3.482l-1.02,1.699l1.972-0.188
						c0.064-0.003,0.224-0.012,0.409-0.099l0.375-0.174c0.311-0.143,0.621-0.286,0.926-0.442c1.348-0.69,2.612-1.581,3.859-2.721
						c0.843,0.1,1.833,0.196,2.864,0.196c0.197,0,0.395-0.004,0.593-0.011c1.329-0.05,2.536-0.206,3.689-0.476
						c1.649-0.386,3.178-0.981,4.546-1.768c1.242-0.715,2.298-1.585,3.136-2.585c0.973-1.16,1.546-2.368,1.751-3.691
						c0.186-1.197,0.06-2.376-0.373-3.503c-0.414-1.076-1.084-2.061-2.048-3.011c-0.889-0.875-1.959-1.63-3.183-2.243
						c-2.234-1.12-4.708-1.743-7.353-1.851C16.41,2.006,16.132,2,15.854,2L15.854,2z"/>
				</g>
				<g>
					<path class="st0" d="M6.974,23.142c0.692-1.152,1.038-2.411,1.404-3.744l0.063-0.227l-0.702-0.42
						c-0.535-0.317-1.07-0.636-1.586-0.981c-0.872-0.586-1.641-1.334-2.288-2.225c-0.966-1.329-1.423-2.761-1.359-4.257
						c0.052-1.202,0.446-2.351,1.171-3.415C4.421,6.783,5.422,5.83,6.652,5.042c1.807-1.159,3.818-1.909,6.147-2.294
						C13.793,2.583,14.82,2.5,15.853,2.5c0.271,0,0.543,0.006,0.815,0.017c2.573,0.106,4.979,0.711,7.149,1.799
						c1.176,0.589,2.204,1.313,3.056,2.152c0.914,0.9,1.545,1.827,1.933,2.834c0.401,1.044,0.518,2.137,0.346,3.247
						c-0.191,1.231-0.728,2.359-1.641,3.446c-0.811,0.968-1.793,1.777-3.002,2.474c-1.325,0.762-2.809,1.339-4.41,1.714
						c-1.124,0.263-2.299,0.414-3.594,0.464c-0.191,0.007-0.382,0.011-0.572,0.011c-1.064,0-2.091-0.106-2.956-0.211l-0.461-0.339
						l0.34,0.366c-1.254,1.166-2.522,2.069-3.876,2.763c-0.298,0.152-0.603,0.293-0.908,0.434l-0.469,0.218L6.54,23.94L6.974,23.142
						z"/>
					<path class="st0" d="M15.854,3c0.264,0,0.529,0.005,0.794,0.016c2.435,0.1,4.76,0.651,6.946,1.746
						c1.079,0.541,2.068,1.213,2.929,2.061c0.778,0.766,1.421,1.628,1.817,2.657c0.372,0.969,0.477,1.965,0.318,2.991
						c-0.189,1.221-0.744,2.266-1.529,3.202c-0.809,0.965-1.782,1.735-2.869,2.361c-1.339,0.771-2.772,1.309-4.275,1.661
						c-1.15,0.269-2.318,0.406-3.499,0.45c-0.185,0.007-0.37,0.01-0.555,0.01c-0.969,0-1.932-0.091-2.894-0.206
						c-0.04-0.005-0.079-0.008-0.115-0.008c-0.151,0-0.276,0.045-0.405,0.165c-1.138,1.057-2.378,1.974-3.764,2.684
						c-0.417,0.214-0.847,0.402-1.271,0.601c-0.012,0.006-0.028,0.003-0.078,0.008c0.835-1.391,1.191-2.933,1.622-4.465
						c-0.116-0.068-0.234-0.136-0.35-0.207c-0.749-0.455-1.515-0.886-2.243-1.374c-0.844-0.567-1.563-1.277-2.163-2.103
						c-0.854-1.175-1.326-2.475-1.263-3.942c0.05-1.156,0.436-2.203,1.085-3.154c0.75-1.1,1.716-1.979,2.831-2.693
						c1.825-1.17,3.828-1.869,5.96-2.222C13.867,3.078,14.858,3,15.854,3 M15.854,2c-1.06,0-2.115,0.086-3.136,0.255
						c-2.365,0.391-4.497,1.187-6.336,2.366C5.095,5.445,4.046,6.445,3.264,7.592c-0.779,1.142-1.202,2.379-1.258,3.675
						c-0.069,1.612,0.42,3.15,1.453,4.573c0.682,0.939,1.495,1.728,2.414,2.345c0.531,0.356,1.078,0.681,1.607,0.995
						c0.126,0.075,0.251,0.149,0.376,0.224c-0.343,1.248-0.679,2.427-1.312,3.482l-1.02,1.699l1.972-0.188
						c0.064-0.003,0.224-0.012,0.409-0.099l0.375-0.174c0.311-0.143,0.621-0.286,0.926-0.442c1.348-0.69,2.612-1.581,3.859-2.721
						c0.843,0.1,1.833,0.196,2.864,0.196c0.197,0,0.395-0.004,0.593-0.011c1.329-0.05,2.536-0.206,3.689-0.476
						c1.649-0.386,3.178-0.981,4.546-1.768c1.242-0.715,2.298-1.585,3.136-2.585c0.973-1.16,1.546-2.368,1.751-3.691
						c0.186-1.197,0.06-2.376-0.373-3.503c-0.414-1.076-1.084-2.061-2.048-3.011c-0.889-0.875-1.959-1.63-3.183-2.243
						c-2.234-1.12-4.708-1.743-7.353-1.851C16.41,2.006,16.132,2,15.854,2L15.854,2z"/>
				</g>
			</g>
			<g>
				<path class="st2" d="M9.413,20.325c0.038-0.004,0.05-0.002,0.059-0.006c0.324-0.152,0.651-0.296,0.969-0.458
					c1.057-0.541,2.002-1.24,2.87-2.046c0.123-0.114,0.24-0.139,0.397-0.12c0.873,0.105,1.748,0.183,2.63,0.149
					c0.9-0.034,1.791-0.138,2.668-0.343c1.146-0.268,2.238-0.679,3.26-1.266c0.829-0.477,1.57-1.064,2.187-1.8
					c0.598-0.714,1.022-1.511,1.166-2.441c0.121-0.782,0.041-1.542-0.243-2.28c-0.302-0.785-0.792-1.442-1.385-2.026
					c-0.657-0.647-1.411-1.16-2.233-1.572c-1.666-0.835-3.439-1.255-5.296-1.331c-0.962-0.04-1.92,0.014-2.872,0.171
					c-1.625,0.269-3.153,0.802-4.544,1.694c-0.85,0.545-1.587,1.215-2.158,2.053c-0.495,0.726-0.789,1.523-0.827,2.405
					c-0.048,1.118,0.312,2.109,0.963,3.006c0.457,0.629,1.005,1.171,1.649,1.603c0.555,0.372,1.139,0.7,1.71,1.048
					c0.089,0.054,0.179,0.106,0.267,0.158C10.321,18.088,10.05,19.264,9.413,20.325z"/>
				<path class="st2" d="M9.413,20.325c0.038-0.004,0.05-0.002,0.059-0.006c0.324-0.152,0.651-0.296,0.969-0.458
					c1.057-0.541,2.002-1.24,2.87-2.046c0.123-0.114,0.24-0.139,0.397-0.12c0.873,0.105,1.748,0.183,2.63,0.149
					c0.9-0.034,1.791-0.138,2.668-0.343c1.146-0.268,2.238-0.679,3.26-1.266c0.829-0.477,1.57-1.064,2.187-1.8
					c0.598-0.714,1.022-1.511,1.166-2.441c0.121-0.782,0.041-1.542-0.243-2.28c-0.302-0.785-0.792-1.442-1.385-2.026
					c-0.657-0.647-1.411-1.16-2.233-1.572c-1.666-0.835-3.439-1.255-5.296-1.331c-0.962-0.04-1.92,0.014-2.872,0.171
					c-1.625,0.269-3.153,0.802-4.544,1.694c-0.85,0.545-1.587,1.215-2.158,2.053c-0.495,0.726-0.789,1.523-0.827,2.405
					c-0.048,1.118,0.312,2.109,0.963,3.006c0.457,0.629,1.005,1.171,1.649,1.603c0.555,0.372,1.139,0.7,1.71,1.048
					c0.089,0.054,0.179,0.106,0.267,0.158C10.321,18.088,10.05,19.264,9.413,20.325z"/>
			</g>
		</g>
	</g>
</g>
</svg>
